<svg xmlns="http://www.w3.org/2000/svg" width="1400" height="740" viewBox="0 0 1400 740"><rect width="1400" height="740" fill="#ffffff"/><g font-family="Malgun Gothic, sans-serif" fill="#182b49"><rect x="50" y="30" width="1280" height="70" rx="14" fill="#ffffff" stroke="#7c91ad"/><text x="690.0" y="73.0" text-anchor="middle" font-size="32">FOCURVE 개발 단계와 PC 확장</text><rect x="50" y="150" width="370" height="150" rx="14" fill="#e8f0ff" stroke="#7c91ad"/><text x="235.0" y="195.0" text-anchor="middle" font-size="23">1단계 · 필수 MVP</text><text x="235.0" y="233.0" text-anchor="middle" font-size="23">Web · Server · Chrome Extension</text><text x="235.0" y="271.0" text-anchor="middle" font-size="23">필수 33개 기능 구현·검증</text><rect x="510" y="150" width="370" height="150" rx="14" fill="#e5f5f2" stroke="#7c91ad"/><text x="695.0" y="195.0" text-anchor="middle" font-size="23">2단계 · 추가 MVP</text><text x="695.0" y="233.0" text-anchor="middle" font-size="23">추가 14개 기능 구현</text><text x="695.0" y="271.0" text-anchor="middle" font-size="23">필수 기능 회귀·전체 연동 검증</text><rect x="970" y="150" width="380" height="150" rx="14" fill="#f1eaff" stroke="#7c91ad"/><text x="1160.0" y="195.0" text-anchor="middle" font-size="23">3단계 · PC 앱 확장</text><text x="1160.0" y="233.0" text-anchor="middle" font-size="23">PC 프로그램 관리·제어</text><text x="1160.0" y="271.0" text-anchor="middle" font-size="23">MVP 검증 후 PC 상세 설계·구현</text><rect x="50" y="390" width="1300" height="110" rx="14" fill="#edf2f8" stroke="#7c91ad"/><text x="700.0" y="434.0" text-anchor="middle" font-size="23">현재 상세 설계: Web 대시보드 ↔ Server·DB ↔ Chrome Extension</text><text x="700.0" y="472.0" text-anchor="middle" font-size="23">현재 47개 기능과 상세 63페이지·요약 8페이지 유지</text><rect x="50" y="560" width="1300" height="110" rx="14" fill="#f1eaff" stroke="#7c91ad"/><text x="700.0" y="604.0" text-anchor="middle" font-size="23">후속 PC 앱: Web·Server 재사용과 연결 방식은 PC 상세 설계에서 검토</text><text x="700.0" y="642.0" text-anchor="middle" font-size="23">PC 기술·지원 OS·일정·담당은 별도 수립 · 모바일은 미정</text></g><path d="M430 225 H490 l-12 -8 m12 8 l-12 8 M890 225 H950 l-12 -8 m12 8 l-12 8" fill="none" stroke="#526988" stroke-width="3"/></svg>