<svg preserveAspectRatio="none" overflow="visible" style="display: block;" width="20" height="20" viewBox="0 0 20 20" fill="none" xmlns="http://www.w3.org/2000/svg">
<g id="DASH / Icon / settings">
<path id="Vector" d="M10 2.5V5M10 15V17.5M2.5 10H5M15 10H17.5M4.66667 4.66667L6.41667 6.41667M13.5833 13.5833L15.3333 15.3333M4.66667 15.3333L6.41667 13.5833M13.5833 6.41667L15.3333 4.66667" stroke-width="1.41667" stroke-linecap="round" stroke-linejoin="round" stroke="#64748B"/>
<path id="Vector_2" d="M14.1667 10C14.1667 12.3012 12.3012 14.1667 10 14.1667C7.69881 14.1667 5.83333 12.3012 5.83333 10C5.83333 7.69881 7.69881 5.83333 10 5.83333C12.3012 5.83333 14.1667 7.69881 14.1667 10Z" stroke-width="1.41667" stroke-linecap="round" stroke-linejoin="round" stroke="#64748B"/>
<path id="Vector_3" d="M10.8333 10C10.8333 10.4602 10.4602 10.8333 10 10.8333C9.53976 10.8333 9.16667 10.4602 9.16667 10C9.16667 9.53976 9.53976 9.16667 10 9.16667C10.4602 9.16667 10.8333 9.53976 10.8333 10Z" stroke-width="1.41667" stroke-linecap="round" stroke-linejoin="round" stroke="#64748B"/>
</g>
</svg>
